# xmcd CD database file
#
# Track frame offsets:
#	150
#	12994
#	25517
#	37150
#	48591
#	62211
#	78915
#	93787
#	106051
#	119720
#	134265
#	149509
#	162306
#	174754
#	189373
#	203896
#	215764
#	227885
#	241928
#	255485
#
# Disc length: 3603 seconds
#
# Revision: 0
# Processed by: cddbd v1.5.2PL0 Copyright (c) Steve Scherf et al.
# Submitted via: CDex 1.51
#
DISCID=130e1114
DTITLE=Various Artist - Harlem Comes To London
DYEAR=1900
DGENRE=Jazz
TTITLE0=Plantation Orchestra\Silver Rose
TTITLE1=Plantation Orchestra\Arabella's Wedding Day
TTITLE2=Plantation Orchestra\Smilin' Joe
TTITLE3=Plantation Orchestra\For Baby And Me
TTITLE4=Noble Sissie and his Orchestra\Camp Meeting Day
TTITLE5=Duke Ellington\Sophisticated Lady
TTITLE6=Ike Hatch and his Orchestra\Dinah
TTITLE7=Valaida with Billy Mason and his Orchestra\I Can't Dance, I've Got Ants In My Pants
TTITLE8=Nicholas Brothers\Keep A Twinkle In Your Eye
TTITLE9=Nicholas Brothers\Your Heart And Mine
TTITLE10=Lavaida Carter\Dixie Isn't Dixie Any More
TTITLE11=Lavaida Carter\Jo-Jo The Cannibal Kid
TTITLE12=Ike Hatch and his Orchestra\Some Of Thes Days
TTITLE13=Buck and Bubbles\Breakfast In Harlem
TTITLE14=Valaida\I Must Have That Man
TTITLE15=Buck and Bubbles\I Ain't Got Nobody
TTITLE16=Buck and Bubbles\Sweet Georgia Brown
TTITLE17=Elizabeth Welch\Harlem In My Heart
TTITLE18=Fats Waller and his Continental Rhythm\Ain't Misbehavin'
TTITLE19=Adelaide Hall and Fats Waller\I Can't Give You Anything But Love
EXTD=
EXTT0=
EXTT1=
EXTT2=
EXTT3=
EXTT4=
EXTT5=
EXTT6=
EXTT7=
EXTT8=
EXTT9=
EXTT10=
EXTT11=
EXTT12=
EXTT13=
EXTT14=
EXTT15=
EXTT16=
EXTT17=
EXTT18=
EXTT19=
PLAYORDER=
